@startuml CareCommunication

hide empty members

top to bottom direction

class "MedComCareCommunicationMessage" as message <<MedComMessagingMessage>>
class "MedComCareCommunicationMessageHeader" as messageheader <<MedComMessagingMessageHeader>>
class "MedComCareCommunicationProvenance" as provenance <<MedComMessagingProvenance>>
class "MedComMessagingOrganization" as messagingOrganization <<MedComCoreOrganization>>
class "MedComCareCommunication" as communication
class "MedComCorePatient" as patient
class "MedComCorePractitionerRole" as pracRole
class "MedComCoreCareTeam" as careteam
class "MedComCorePractitioner" as author
class "MedComCoreEncounter" as encounter
class "MedComCoreOrganization" as organization

message --> messageheader : "entry"
messageheader --> communication : "focus"
communication --> patient : "subject"
communication --> pracRole : "author"
message --> provenance : "entry"
provenance --> messageheader : "target" 
provenance --> messagingOrganization : "agent.who"
communication --> careteam : "sender"
communication --> careteam : "recipient"
communication --> pracRole : "sender"
communication --> pracRole : "recipient"
messagingOrganization <-- communication : "assigner"
pracRole --> author : "practitioner"
pracRole --> organization : "organization"
careteam --> organization : "managingOrganization"
communication --> encounter : "encounter"


messageheader --> messagingOrganization : "receiver"
messageheader --> messagingOrganization : "sender"
@enduml